<?xml version="1.0" encoding="UTF-8" standalone="no"?>
<!-- Created with Inkscape (http://www.inkscape.org/) -->

<svg
   xmlns:dc="http://purl.org/dc/elements/1.1/"
   xmlns:cc="http://creativecommons.org/ns#"
   xmlns:rdf="http://www.w3.org/1999/02/22-rdf-syntax-ns#"
   xmlns:svg="http://www.w3.org/2000/svg"
   xmlns="http://www.w3.org/2000/svg"
   xmlns:sodipodi="http://sodipodi.sourceforge.net/DTD/sodipodi-0.dtd"
   xmlns:inkscape="http://www.inkscape.org/namespaces/inkscape"
   id="svg3395"
   version="1.1"
   inkscape:version="0.91 r13725"
   width="565"
   height="86.25"
   viewBox="0 0 565 86.25"
   sodipodi:docname="b01.svg">
  <metadata
     id="metadata3401">
    <rdf:RDF>
      <cc:Work
         rdf:about="">
        <dc:format>image/svg+xml</dc:format>
        <dc:type
           rdf:resource="http://purl.org/dc/dcmitype/StillImage" />
        <dc:title />
      </cc:Work>
    </rdf:RDF>
  </metadata>
  <defs
     id="defs3399" />
  <sodipodi:namedview
     pagecolor="#ffffff"
     bordercolor="#666666"
     borderopacity="1"
     objecttolerance="10"
     gridtolerance="10"
     guidetolerance="10"
     inkscape:pageopacity="0"
     inkscape:pageshadow="2"
     inkscape:window-width="1440"
     inkscape:window-height="851"
     id="namedview3397"
     showgrid="false"
     inkscape:snap-bbox="true"
     inkscape:snap-global="false"
     inkscape:zoom="2"
     inkscape:cx="258.15003"
     inkscape:cy="31.217539"
     inkscape:window-x="0"
     inkscape:window-y="1"
     inkscape:window-maximized="1"
     inkscape:current-layer="svg3395" />
  <g
     inkscape:groupmode="layer"
     id="layer1"
     inkscape:label="Trace1"
     style="display:inline">
    <path
       style="fill:none;fill-rule:evenodd;stroke:#000000;stroke-width:1px;stroke-linecap:butt;stroke-linejoin:miter;stroke-opacity:1"
       d="M 112.60533,52.581168 Z"
       id="path3408"
       inkscape:connector-curvature="0" />
    <path
       style="fill:none;fill-rule:evenodd;stroke:#000000;stroke-width:1px;stroke-linecap:butt;stroke-linejoin:miter;stroke-opacity:1"
       d="M 112.76642,52.581168 Z"
       id="path3410"
       inkscape:connector-curvature="0" />
  </g>
  <path
     style="fill:#000000;fill-rule:evenodd;stroke:none;stroke-width:1px;stroke-linecap:butt;stroke-linejoin:miter;stroke-opacity:1;fill-opacity:1"
     d="M 201.28125 25.421875 L 187.49805 25.763672 L 187.53711 40.435547 L 108.49805 40.740234 C 108.49805 40.740234 103.44168 42.217322 103.45898 47.064453 C 103.47624 51.911584 108.49805 53.765625 108.49805 53.765625 L 187.57422 53.386719 L 187.61133 67.339844 L 201.50977 67.113281 L 201.43359 53.320312 L 270.76758 52.988281 C 270.76758 52.988281 275.20898 52.304372 275.20898 47.064453 C 275.20898 41.824534 271.10938 40.115234 271.10938 40.115234 L 201.36328 40.382812 L 201.28125 25.421875 z M 229.98633 40.457031 L 234.54297 46.494141 L 230.44336 52.873047 L 218.14062 47.064453 L 229.98633 40.457031 z M 260.9707 40.457031 L 265.18555 46.039062 L 260.62891 52.873047 L 249.5625 46.822266 L 239.32812 52.533203 L 234.6582 46.609375 L 238.75781 40.914062 L 249.5625 46.822266 L 260.9707 40.457031 z M 146.03516 41.027344 L 150.93164 46.267578 L 145.00977 52.759766 L 131.63281 47.275391 L 118.4668 52.988281 L 112.54492 46.835938 L 117.78516 41.597656 L 131.63281 47.275391 L 146.03516 41.027344 z M 156.51367 41.027344 L 167.56445 46.951172 L 157.19727 53.214844 L 151.04688 46.609375 L 156.51367 41.027344 z "
     id="path3406" />
  <g
     inkscape:groupmode="layer"
     id="layer2"
     inkscape:label="Trace2"
     style="display:inline">
    <path
       style="fill:none;fill-opacity:1;fill-rule:evenodd;stroke:#000000;stroke-width:2;stroke-linecap:butt;stroke-linejoin:miter;stroke-miterlimit:4;stroke-dasharray:none;stroke-opacity:1"
       d="m 265.18548,46.153223 -14.125,21.870968 -32.2979,-41.75826 c -5.63832,4.269015 -17.53451,4.935244 -17.53451,4.935244 l -13.95791,-0.08424 c 0,0 -10.07473,1.077128 -17.62763,-4.545002 L 131.45363,67.68246 112.37348,46.950605 133.10534,25.649193 169.5,67.568548 c 0,0 14.01109,-6.037298 17.99798,-6.151209 3.9869,-0.113912 0.11392,0.113911 0.11392,0.113911 l 14.23891,0.227823 c 0,0 13.90363,-0.170868 19.33643,4.44254 l 0,0 0,0 28.33544,-41.3498 z"
       id="path3413"
       inkscape:connector-curvature="0"
       sodipodi:nodetypes="ccccccccccsccccccc" />
    <path
       style="fill:#000000;fill-opacity:1;fill-rule:evenodd;stroke:none;stroke-width:1px;stroke-linecap:butt;stroke-linejoin:miter;stroke-opacity:1"
       d="m 123.63819,38.968649 9.34564,-9.32996 8.05689,9.491055 z"
       id="path4379"
       inkscape:connector-curvature="0"
       sodipodi:nodetypes="cccc" />
    <path
       style="fill:#000000;fill-opacity:1;fill-rule:evenodd;stroke:none;stroke-width:1px;stroke-linecap:butt;stroke-linejoin:miter;stroke-opacity:1"
       d="m 123.31814,55.319781 16.31977,-0.176777 -8.21584,8.475303 z"
       id="path4381"
       inkscape:connector-curvature="0"
       sodipodi:nodetypes="cccc" />
  </g>
  <g
     inkscape:groupmode="layer"
     id="layer3"
     inkscape:label="Trace3"
     style="display:inline" />
  <path
     style="fill:#000000;fill-opacity:1;fill-rule:evenodd;stroke:none;stroke-width:1px;stroke-linecap:butt;stroke-linejoin:miter;stroke-opacity:1"
     d="m 249.57964,29.144153 6.89314,9.285282 -13.09173,-0.01109 z"
     id="path3420"
     inkscape:connector-curvature="0"
     sodipodi:nodetypes="cccc" />
  <path
     style="fill:#000000;fill-opacity:1;fill-rule:evenodd;stroke:none;stroke-width:1px;stroke-linecap:butt;stroke-linejoin:miter;stroke-opacity:1"
     d="m 243.92843,54.788306 12.69153,0.136089 -5.80948,8.840726 z"
     id="path3422"
     inkscape:connector-curvature="0"
     sodipodi:nodetypes="cccc" />
  <g
     inkscape:groupmode="layer"
     id="layer4"
     inkscape:label="Trace4"
     style="display:inline">
    <path
       style="color:#000000;font-style:normal;font-variant:normal;font-weight:normal;font-stretch:normal;font-size:medium;line-height:normal;font-family:sans-serif;text-indent:0;text-align:start;text-decoration:none;text-decoration-line:none;text-decoration-style:solid;text-decoration-color:#000000;letter-spacing:normal;word-spacing:normal;text-transform:none;direction:ltr;block-progression:tb;writing-mode:lr-tb;baseline-shift:baseline;text-anchor:start;white-space:normal;clip-rule:nonzero;display:inline;overflow:visible;visibility:visible;opacity:1;isolation:auto;mix-blend-mode:normal;color-interpolation:sRGB;color-interpolation-filters:linearRGB;solid-color:#000000;solid-opacity:1;fill:#000000;fill-opacity:1;fill-rule:evenodd;stroke:none;stroke-width:2;stroke-linecap:butt;stroke-linejoin:miter;stroke-miterlimit:4;stroke-dasharray:none;stroke-dashoffset:0;stroke-opacity:1;color-rendering:auto;image-rendering:auto;shape-rendering:auto;text-rendering:auto;enable-background:accumulate"
       d="m 101.85352,24.763672 c -1.25381,-0.02026 -2.415027,0.417183 -3.179692,1.294922 -0.425775,0.488735 -0.706357,1.089561 -0.878906,1.759765 -0.270999,-0.683048 -0.686183,-1.294125 -1.291016,-1.77539 -1.222664,-0.972874 -2.995915,-1.330424 -5.457031,-1.203125 -2.749452,0.142213 -4.942658,1.926615 -6.927734,4.041015 -0.568075,0.605084 -1.124099,1.245593 -1.675782,1.896485 -4.835879,-3.001945 -10.347446,-5.01237 -16.455078,-5.132813 -3.229148,-0.06368 -7.016489,0.608354 -10.208984,2.732422 -1.499675,-1.034469 -2.726053,-1.870516 -3.748047,-2.351562 -1.172194,-0.551745 -2.268866,-0.772278 -3.533203,-0.783203 -3.134035,-0.02709 -6.269493,0.655697 -8.697266,2.355468 -2.427772,1.699771 -4.070311,4.487805 -4.070312,8.230469 -10e-7,2.901017 1.495569,5.720406 3.21875,8.423828 -0.881452,1.340758 -1.704483,2.823132 -2.275391,4.291016 -0.650397,1.67226 -1.067798,3.212306 -1.023437,4.476562 0.08508,2.424635 0.654338,5.944711 2.523437,8.976563 1.869099,3.031852 5.168517,5.519529 10.234375,5.519531 2.839856,10e-7 4.992778,-0.235936 7.371094,-2.001953 3.023255,1.39124 5.985407,2.180703 9.146484,2.164062 4.19846,-0.0221 8.797403,-2.310143 13.439453,-5.648437 0.782258,-0.562554 1.565776,-1.165062 2.347657,-1.785156 0.526991,0.781608 1.061943,1.559948 1.605468,2.302734 1.179994,1.612588 2.387325,3.080647 3.636719,4.179687 1.249394,1.099043 2.580224,1.891578 4.054688,1.835938 2.353335,-0.0888 4.251887,-0.940441 5.55664,-2.09375 0.534507,-0.472466 0.971343,-0.994781 1.304688,-1.542969 0.172456,0.455929 0.383462,0.901051 0.673828,1.306641 0.784796,1.096224 2.091437,1.927734 3.703128,1.927734 1.23064,0 2.44253,-0.628093 3.21484,-1.767578 0.77011,-1.136232 1.16373,-2.718942 1.16602,-4.77539 0.0151,-0.826482 -0.25473,-1.746427 -0.71875,-3.019532 -0.22664,-0.621799 -0.66632,-1.487393 -0.9961,-2.232422 1.60346,-1.353095 4.03516,-3.384765 4.03516,-3.384765 l -1.19727,-1.601563 c 0,0 -2.33586,1.979715 -3.68359,3.091797 -1.9246,-3.690512 -4.333449,-7.358587 -6.445313,-10.179687 2.158826,-2.576655 4.133023,-5.056386 5.703123,-7.21875 0.0238,0.02668 0.0426,0.05544 0.0664,0.08203 2.29002,2.55631 5.06445,5.275391 5.06445,5.275391 l 1.37695,-1.451172 c 0,0 -2.72735,-2.677741 -4.95117,-5.160157 -0.14065,-0.157005 -0.24286,-0.315159 -0.38281,-0.474609 0.77603,-1.127679 1.61701,-2.32004 2.12305,-3.175781 0.37734,-0.638105 0.67409,-1.190328 0.88867,-1.664063 0.21457,-0.473734 0.38151,-0.806494 0.3789,-1.347656 -0.007,-1.495735 -0.69021,-2.712307 -1.67578,-3.416016 -0.98557,-0.703708 -2.1877,-0.957595 -3.36132,-0.976562 z m -0.0332,2 c 0.89059,0.01439 1.71015,0.230605 2.23242,0.603516 0.52228,0.37291 0.83337,0.838805 0.83789,1.798828 -7.2e-4,-0.153853 -0.0337,0.143973 -0.20117,0.513672 -0.16745,0.369696 -0.43574,0.873213 -0.78906,1.470703 -0.39611,0.669841 -1.12022,1.684601 -1.7168,2.568359 -0.44657,-0.556453 -0.97569,-1.132199 -1.33203,-1.648438 -0.81047,-1.17417 -1.253286,-2.271755 -1.25781,-2.558593 -0.01661,-1.053424 0.237767,-1.736769 0.58789,-2.138672 0.35013,-0.401903 0.82826,-0.622474 1.63867,-0.609375 z m -10.669919,0.07422 c 2.803516,-0.163288 4.975319,0.698968 5.070312,3.298828 0.480583,2.232811 -1.181641,4.570312 -3.431641,3.882812 0,0 2.581718,-3.987454 -1.320312,-3.925781 -3.90203,0.06167 -2.20782,6.272182 1.359375,6.126953 3.567195,-0.145229 4.952642,-2.386255 5.304687,-4.757812 0.284448,0.56491 0.654083,1.13547 1.074219,1.74414 0.507905,0.735825 1.187009,1.49242 1.814449,2.25 -0.0767,0.106993 -0.10496,0.166687 -0.18359,0.275391 -1.486272,2.054782 -3.368334,4.432509 -5.423828,6.902344 -3.474833,-4.074061 -7.516414,-8.110758 -11.285156,-10.748047 0.486059,-0.572188 0.967746,-1.123879 1.449219,-1.636719 1.859648,-1.980801 3.649967,-3.31268 5.572266,-3.412109 z m -42.669922,0.404297 c 1.0697,0.0092 1.750208,0.145103 2.699219,0.591796 0.887615,0.417796 2.049577,1.179401 3.705078,2.326172 -3.087253,2.332155 -5.145764,5.152052 -6.09961,9.482422 -3.755421,0.794379 -6.403265,2.208713 -8.017578,3.796875 -1.720089,-2.675009 -3.03711,-5.341495 -3.037109,-7.611328 10e-7,-3.184416 1.256405,-5.217889 3.21875,-6.591797 1.962345,-1.373908 4.705904,-2.01856 7.53125,-1.99414 z m 17.46875,0.402343 c 5.575233,0.109944 10.664364,1.933882 15.185547,4.691407 -0.931906,1.115695 -1.863412,2.21609 -2.828125,3.191406 -1.891599,1.912386 -5.191067,5.350607 -9.119141,9.376953 l -0.08203,0.08398 c -2.201716,-1.92744 -4.478396,-3.544594 -6.921875,-4.605469 -0.915687,-4.209729 -3.062019,-7.873885 -5.646485,-10.15625 2.787125,-1.994465 6.352536,-2.642366 9.41211,-2.582031 z m 16.884765,5.789063 c 4.276501,3.384608 8.435531,6.827192 11.236328,10.746094 -1.194834,1.396276 -2.345668,2.782698 -3.652343,4.191406 -2.919793,3.147784 -6.076679,6.235981 -9.25586,8.917968 -1.275011,-1.95613 -2.497759,-3.877395 -3.591797,-5.376953 -1.425673,-1.954123 -3.755978,-3.76008 -6.253906,-6.328125 3.540565,-3.636548 6.689053,-6.908397 8.41211,-8.65039 1.095153,-1.107189 2.117376,-2.315676 3.105468,-3.5 z M 40.726562,45.074219 c 1.421479,1.692214 4.21539,3.720825 7.746094,4.99414 0.902021,6.077792 3.653546,10.871738 6.361328,13.701172 -2.134682,1.708833 -3.513895,1.746095 -6.425781,1.746094 -4.43874,-10e-7 -6.936809,-1.982028 -8.53125,-4.568359 -1.594441,-2.586332 -2.152496,-5.831477 -2.228515,-7.998047 -0.02418,-0.689082 0.296456,-2.151998 0.890624,-3.679688 0.556476,-1.430771 1.339375,-2.950801 2.1875,-4.195312 z m 54.550782,0.761719 c 2.235993,3.310586 4.728756,6.62421 6.193356,9.955078 -0.003,0.0029 -0.003,0.003 -0.006,0.0059 -1.17192,1.061169 -2.353273,2.21925 -3.279293,3.34375 -0.335459,0.40736 -0.630472,0.802957 -0.894531,1.199219 -0.144506,-0.641308 -0.344944,-1.303891 -0.648438,-1.9375 -0.666369,-1.391193 -1.713832,-2.64305 -5.289062,-2.650391 -3.57523,-0.0073 -4.970758,6.932871 -0.916016,6.748047 4.054742,-0.184824 0.951172,-4.367188 0.951172,-4.367188 0,0 2.713989,-0.414179 3.449219,1.195313 0.73523,1.609492 0.920829,4.262988 -0.595703,5.642578 -0.950576,0.840241 -2.392914,1.52146 -4.308594,1.59375 -0.660044,0.02491 -1.595307,-0.404621 -2.65625,-1.337891 -1.060943,-0.933267 -2.208299,-2.30961 -3.34375,-3.861328 -0.559399,-0.764478 -1.115046,-1.571674 -1.664063,-2.390625 3.324864,-2.787615 6.59464,-5.989787 9.613281,-9.24414 1.2153,-1.310195 2.274575,-2.594283 3.394532,-3.894531 z m -26.105469,0.449218 c 2.905387,3.144951 5.55039,5.117588 6.78125,6.804688 1.061643,1.455159 2.314436,3.433133 3.650391,5.476562 -0.804121,0.641245 -1.607121,1.263203 -2.40625,1.837891 -4.4767,3.219384 -8.827703,5.255261 -12.28125,5.273437 -2.80879,0.01478 -5.409736,-0.612988 -8.175782,-1.871093 2.767531,-2.763568 4.648283,-8.367719 5.464844,-13.5625 2.64547,-0.838861 4.958315,-2.165513 6.966797,-3.958985 z M 102.3457,57.75 c 0.20601,0.487239 0.53485,1.119748 0.68555,1.533203 0.42786,1.173872 0.60352,2.099598 0.59961,2.298828 l 0,0.0098 0,0.0098 c -2e-5,1.801201 -0.36819,2.995137 -0.82422,3.667969 -0.45603,0.672833 -0.93665,0.890625 -1.55859,0.890625 -0.96585,0 -1.592349,-0.415977 -2.076175,-1.091797 -0.483826,-0.67582 -0.742752,-1.633746 -0.710937,-2.460937 0.0096,-0.250176 0.447992,-1.199642 1.269531,-2.197266 0.698011,-0.847619 1.662041,-1.772259 2.615231,-2.660156 z"
       id="path4385"
       inkscape:connector-curvature="0"
       sodipodi:nodetypes="sscssscscsssscsssscsscsssscssscscccccccccscsccssssccscssssccczzcscsccsccscccsscscsccccsccscscsccccssssccccscszzczcssscsccscssccccscccssscsc" />
  </g>
  <g
     inkscape:groupmode="layer"
     id="layer5"
     inkscape:label="Trace5" />
  <g
     inkscape:groupmode="layer"
     id="layer8"
     inkscape:label="Center2"
     style="display:inline">
    <path
       style="opacity:1;fill:#000000;fill-opacity:1;fill-rule:evenodd;stroke:none;stroke-width:1px;stroke-linecap:butt;stroke-linejoin:miter;stroke-opacity:1"
       d="m 290.58789,24.964844 0,6.265625 -5.01172,0 0,4.785156 5.01172,0 0,3.53125 -10.93555,0 -0.11328,5.125 11.04883,0 0,7.042969 -4.89844,-2.828125 -0.0742,4.601562 4.97266,2.871094 0,4.716797 0.68359,0 0,5.921875 3.53125,0 0,-5.353516 0.69336,-0.185547 0,-2.265625 5.03516,2.908203 0,-4.646484 -5.03516,-2.90625 0,-9.876953 10.69727,0 0,-5.125 -10.69727,0 0,-3.53125 4.88868,0 0,-4.785156 -4.88868,0 0,-6.265625 -4.9082,0 z m 0.57031,7.0625 3.41602,0 0.11523,2.621094 -3.53125,0 0,-2.621094 z m -4.10742,8.734375 3.58399,0 0,2.294922 -3.58399,0.08008 0,-2.375 z m 8.53906,0 3.58399,0 0,2.294922 -3.58399,0.08008 0,-2.375 z m -4.33007,0.05859 3.58398,0 0,2.296876 -3.58398,0.08008 0,-2.376954 z m -0.16211,11.761719 3.68359,2.125 0,3.070313 -3.8125,-2.201172 0.12891,-2.994141 z"
       id="path4318"
       inkscape:connector-curvature="0" />
    <path
       style="opacity:0;fill:#00b1f4;fill-opacity:1;fill-rule:evenodd;stroke:none;stroke-width:1px;stroke-linecap:butt;stroke-linejoin:miter;stroke-opacity:1"
       d="m 285.91734,49.001008 0,5.695565 13.76377,7.946515 0,-5.782201 z"
       id="path4324"
       inkscape:connector-curvature="0" />
    <path
       style="fill:none;fill-rule:evenodd;stroke:none;stroke-width:1px;stroke-linecap:butt;stroke-linejoin:miter;stroke-opacity:1"
       d="m 286.94254,40.571572 0,2.506049 3.64516,0 0,-2.392137 z"
       id="path4331"
       inkscape:connector-curvature="0" />
  </g>
  <g
     inkscape:groupmode="layer"
     id="layer7"
     inkscape:label="Center1"
     style="display:inline">
    <path
       style="fill:#000000;fill-opacity:1;fill-rule:evenodd;stroke:none;stroke-width:1px;stroke-linecap:butt;stroke-linejoin:miter;stroke-opacity:1"
       d="m 268.26109,45.355847 c 0.22782,-10.707662 8.88507,-19.593686 17.65625,-19.706653 0,0 -6.15121,2.219772 -6.15121,5.126008 0,2.108856 0.68347,3.417338 0.68347,3.417338 -11.04939,0.227823 -11.73287,11.163307 -11.73287,11.163307 z"
       id="path4298"
       inkscape:connector-curvature="0"
       sodipodi:nodetypes="ccsccc" />
    <path
       style="fill:#000000;fill-opacity:1;fill-rule:evenodd;stroke:none;stroke-width:1px;stroke-linecap:butt;stroke-linejoin:miter;stroke-opacity:1"
       d="m 293.20766,68.138105 c 10.82157,0.227823 24.61371,-8.813348 24.72762,-22.824437 0,0 -2.51491,11.091574 -7.64093,11.205486 -3.75987,0.08355 -4.67036,-1.70867 -4.67036,-1.70867 0,0 0.34174,1.253024 0.34174,3.872984 0,4.328629 -6.60685,7.859882 -12.98589,8.087701 -6.37917,0.227823 -11.46058,-4.899186 -11.39113,-7.404234 0.0666,-2.402038 0.22783,-3.417338 0.22783,-3.417338 0,0 -1.13796,0.638819 -4.67037,0.569556 -5.80947,-0.113911 -8.48639,-10.024194 -8.48639,-10.024194 0.11391,10.821573 13.72631,21.415324 24.54788,21.643146 z"
       id="path4300"
       inkscape:connector-curvature="0"
       sodipodi:nodetypes="scscssscscs" />
    <path
       style="fill:#000000;fill-opacity:1;fill-rule:evenodd;stroke:none;stroke-width:1px;stroke-linecap:butt;stroke-linejoin:miter;stroke-opacity:1"
       d="m 318.09728,44.501512 c -0.22782,-10.707662 -8.88507,-19.593686 -17.65625,-19.706653 0,0 6.15121,2.219772 6.15121,5.126008 0,2.108856 -0.68347,3.417338 -0.68347,3.417338 11.04939,0.227823 11.73287,11.163307 11.73287,11.163307 z"
       id="path4298-7"
       inkscape:connector-curvature="0"
       sodipodi:nodetypes="ccsccc" />
  </g>
  <path
     inkscape:connector-curvature="0"
     style="fill:#000000;fill-opacity:1;fill-rule:evenodd;stroke:none;stroke-width:1px;stroke-linecap:butt;stroke-linejoin:miter;stroke-opacity:1"
     d="m 384.88691,24.736145 13.7832,0.341797 -0.0391,14.671875 79.03906,0.304687 c 0,0 5.05637,1.477088 5.03907,6.324219 -0.0173,4.847131 -5.03907,6.701172 -5.03907,6.701172 l -79.07617,-0.378906 -0.0371,13.953125 -13.89844,-0.226563 0.0762,-13.792969 -69.33399,-0.332031 c 0,0 -4.4414,-0.683909 -4.4414,-5.923828 0,-5.239919 4.0996,-6.949219 4.0996,-6.949219 l 69.7461,0.267578 0.082,-14.960937 z m -28.70508,15.035156 -4.55664,6.03711 4.09961,6.378906 12.30274,-5.808594 -11.84571,-6.607422 z m -30.98437,0 -4.21485,5.582031 4.55664,6.833985 11.06641,-6.050781 10.23438,5.710937 4.66992,-5.923828 -4.09961,-5.695313 -10.80469,5.908204 -11.4082,-6.365235 z m 114.93554,0.570313 -4.89648,5.240234 5.92187,6.492188 13.37696,-5.484375 13.16601,5.71289 5.92188,-6.152343 -5.24024,-5.238282 -13.84765,5.677735 -14.40235,-6.248047 z m -10.47851,0 -11.05078,5.923828 10.36718,6.263672 6.15039,-6.605469 -5.46679,-5.582031 z"
     id="path3406-2" />
  <path
     style="display:inline;fill:none;fill-rule:evenodd;stroke:#000000;stroke-width:2;stroke-linecap:butt;stroke-linejoin:miter;stroke-opacity:1;stroke-miterlimit:4;stroke-dasharray:none"
     d="m 320.98268,45.467493 14.125,21.870968 32.2979,-41.75826 c 5.63832,4.269015 17.53451,4.935244 17.53451,4.935244 l 13.95791,-0.08424 c 0,0 10.07473,1.077128 17.62763,-4.545002 l 38.1889,41.110527 19.08015,-20.731855 -20.73186,-21.301412 -36.39466,41.919355 c 0,0 -14.01109,-6.037298 -17.99798,-6.151209 -3.9869,-0.113912 -0.11392,0.113911 -0.11392,0.113911 l -14.23891,0.227823 c 0,0 -13.90363,-0.170868 -19.33643,4.44254 l 0,0 0,0 -28.33544,-41.3498 z"
     id="path3413-3"
     inkscape:connector-curvature="0"
     sodipodi:nodetypes="ccccccccccsccccccc" />
  <path
     style="display:inline;fill:#000000;fill-opacity:1;fill-rule:evenodd;stroke:none;stroke-width:1px;stroke-linecap:butt;stroke-linejoin:miter;stroke-opacity:1"
     d="m 463.41385,38.282919 -10.22952,-10.39062 -8.94077,10.551715 z"
     id="path4379-0"
     inkscape:connector-curvature="0" />
  <path
     style="display:inline;fill:#000000;fill-opacity:1;fill-rule:evenodd;stroke:none;stroke-width:1px;stroke-linecap:butt;stroke-linejoin:miter;stroke-opacity:1"
     d="m 462.85002,54.634051 -16.67332,0 8.21584,9.182409 z"
     id="path4381-5"
     inkscape:connector-curvature="0" />
  <path
     style="fill:#000000;fill-opacity:1;fill-rule:evenodd;stroke:none;stroke-width:1px;stroke-linecap:butt;stroke-linejoin:miter;stroke-opacity:1"
     d="m 336.58852,27.583423 -7.51814,9.910282 14.46673,0.113912 z"
     id="path3420-6"
     inkscape:connector-curvature="0" />
  <path
     style="fill:#000000;fill-opacity:1;fill-rule:evenodd;stroke:none;stroke-width:1px;stroke-linecap:butt;stroke-linejoin:miter;stroke-opacity:1"
     d="m 342.73973,54.352576 -13.44153,-0.113911 5.80948,9.340726 z"
     id="path3422-0"
     inkscape:connector-curvature="0" />
  <path
     style="color:#000000;font-style:normal;font-variant:normal;font-weight:normal;font-stretch:normal;font-size:medium;line-height:normal;font-family:sans-serif;text-indent:0;text-align:start;text-decoration:none;text-decoration-line:none;text-decoration-style:solid;text-decoration-color:#000000;letter-spacing:normal;word-spacing:normal;text-transform:none;direction:ltr;block-progression:tb;writing-mode:lr-tb;baseline-shift:baseline;text-anchor:start;white-space:normal;clip-rule:nonzero;display:inline;overflow:visible;visibility:visible;opacity:1;isolation:auto;mix-blend-mode:normal;color-interpolation:sRGB;color-interpolation-filters:linearRGB;solid-color:#000000;solid-opacity:1;fill:#000000;fill-opacity:1;fill-rule:evenodd;stroke:none;stroke-width:2;stroke-linecap:butt;stroke-linejoin:miter;stroke-miterlimit:4;stroke-dasharray:none;stroke-dashoffset:0;stroke-opacity:1;color-rendering:auto;image-rendering:auto;shape-rendering:auto;text-rendering:auto;enable-background:accumulate"
     d="m 484.42152,24.58551 c 1.25381,-0.02026 2.41502,0.417183 3.17969,1.294922 0.42577,0.488735 0.70635,1.089561 0.8789,1.759765 0.271,-0.683048 0.68619,-1.294125 1.29102,-1.77539 1.22266,-0.972874 2.99591,-1.330424 5.45703,-1.203125 2.74945,0.142213 4.94266,1.926615 6.92773,4.041015 0.56808,0.605084 1.1241,1.245593 1.67579,1.896485 4.83588,-3.001945 10.34744,-5.01237 16.45507,-5.132813 3.22915,-0.06368 7.01649,0.608354 10.20899,2.732422 1.49967,-1.034469 2.72605,-1.870516 3.74805,-2.351562 1.17219,-0.551745 2.26886,-0.772278 3.5332,-0.783203 3.13403,-0.02709 6.26949,0.655697 8.69726,2.355468 2.42778,1.699771 4.07032,4.487805 4.07032,8.230469 0,2.901017 -1.49557,5.720406 -3.21875,8.423828 0.88145,1.340758 1.70448,2.823132 2.27539,4.291016 0.65039,1.67226 1.0678,3.212306 1.02343,4.476562 -0.0851,2.424635 -0.65433,5.944711 -2.52343,8.976563 -1.8691,3.031852 -5.16852,5.519529 -10.23438,5.519531 -2.83985,10e-7 -4.99278,-0.235936 -7.37109,-2.001953 -3.02326,1.39124 -5.98541,2.180703 -9.14649,2.164062 -4.19846,-0.0221 -8.7974,-2.310143 -13.43945,-5.648437 -0.78226,-0.562554 -1.56577,-1.165062 -2.34766,-1.785156 -0.52699,0.781608 -1.06194,1.559948 -1.60546,2.302734 -1.18,1.612588 -2.38733,3.080647 -3.63672,4.179687 -1.2494,1.099043 -2.58023,1.891578 -4.05469,1.835938 -2.35334,-0.0888 -4.25189,-0.940441 -5.55664,-2.09375 -0.53451,-0.472466 -0.97134,-0.994781 -1.30469,-1.542969 -0.17245,0.455929 -0.38346,0.901051 -0.67383,1.306641 -0.78479,1.096224 -2.09143,1.927734 -3.70312,1.927734 -1.23064,0 -2.44253,-0.628093 -3.21484,-1.767578 -0.77011,-1.136232 -1.16373,-2.718942 -1.16602,-4.77539 -0.0151,-0.826482 0.25473,-1.746427 0.71875,-3.019532 0.22664,-0.621799 0.66632,-1.487393 0.9961,-2.232422 -1.60346,-1.353095 -4.03516,-3.384765 -4.03516,-3.384765 l 1.19727,-1.601563 c 0,0 2.33586,1.979715 3.68359,3.091797 1.9246,-3.690512 4.33344,-7.358587 6.44531,-10.179687 -2.15883,-2.576655 -4.13302,-5.056386 -5.70312,-7.21875 -0.0238,0.02668 -0.0426,0.05544 -0.0664,0.08203 -2.29002,2.55631 -5.06445,5.275391 -5.06445,5.275391 l -1.37695,-1.451172 c 0,0 2.72735,-2.677741 4.95117,-5.160157 0.14065,-0.157005 0.24286,-0.315159 0.38281,-0.474609 -0.77603,-1.127679 -1.61701,-2.32004 -2.12305,-3.175781 -0.37734,-0.638105 -0.67409,-1.190328 -0.88867,-1.664063 -0.21457,-0.473734 -0.38151,-0.806494 -0.3789,-1.347656 0.007,-1.495735 0.69021,-2.712307 1.67578,-3.416016 0.98557,-0.703708 2.1877,-0.957595 3.36132,-0.976562 z m 0.0332,2 c -0.89059,0.01439 -1.71015,0.230605 -2.23242,0.603516 -0.52228,0.37291 -0.83337,0.838805 -0.83789,1.798828 7.2e-4,-0.153853 0.0337,0.143973 0.20117,0.513672 0.16745,0.369696 0.43574,0.873213 0.78906,1.470703 0.39611,0.669841 1.12022,1.684601 1.7168,2.568359 0.44657,-0.556453 0.97569,-1.132199 1.33203,-1.648438 0.81047,-1.17417 1.25328,-2.271755 1.25781,-2.558593 0.0166,-1.053424 -0.23777,-1.736769 -0.58789,-2.138672 -0.35013,-0.401903 -0.82826,-0.622474 -1.63867,-0.609375 z m 10.66991,0.07422 c -2.80351,-0.163288 -4.97531,0.698968 -5.07031,3.298828 -0.48058,2.232811 1.18164,4.570312 3.43164,3.882812 0,0 -2.58171,-3.987454 1.32032,-3.925781 3.90203,0.06167 2.20782,6.272182 -1.35938,6.126953 -3.56719,-0.145229 -4.95264,-2.386255 -5.30469,-4.757812 -0.28444,0.56491 -0.65408,1.13547 -1.07422,1.74414 -0.5079,0.735825 -1.187,1.49242 -1.81444,2.25 0.0767,0.106993 0.10496,0.166687 0.18359,0.275391 1.48627,2.054782 3.36833,4.432509 5.42382,6.902344 3.47484,-4.074061 7.51642,-8.110758 11.28516,-10.748047 -0.48606,-0.572188 -0.96775,-1.123879 -1.44922,-1.636719 -1.85965,-1.980801 -3.64997,-3.31268 -5.57227,-3.412109 z m 42.66993,0.404297 c -1.0697,0.0092 -1.75021,0.145103 -2.69922,0.591796 -0.88762,0.417796 -2.04958,1.179401 -3.70508,2.326172 3.08725,2.332155 5.14576,5.152052 6.09961,9.482422 3.75542,0.794379 6.40326,2.208713 8.01758,3.796875 1.72009,-2.675009 3.03711,-5.341495 3.03711,-7.611328 0,-3.184416 -1.25641,-5.217889 -3.21875,-6.591797 -1.96235,-1.373908 -4.70591,-2.01856 -7.53125,-1.99414 z m -17.46875,0.402343 c -5.57524,0.109944 -10.66437,1.933882 -15.18555,4.691407 0.93191,1.115695 1.86341,2.21609 2.82812,3.191406 1.8916,1.912386 5.19107,5.350607 9.11915,9.376953 l 0.082,0.08398 c 2.20171,-1.92744 4.47839,-3.544594 6.92187,-4.605469 0.91569,-4.209729 3.06202,-7.873885 5.64649,-10.15625 -2.78713,-1.994465 -6.35254,-2.642366 -9.41211,-2.582031 z m -16.88477,5.789063 c -4.2765,3.384608 -8.43553,6.827192 -11.23633,10.746094 1.19484,1.396276 2.34567,2.782698 3.65235,4.191406 2.91979,3.147784 6.07668,6.235981 9.25586,8.917968 1.27501,-1.95613 2.49776,-3.877395 3.59179,-5.376953 1.42568,-1.954123 3.75598,-3.76008 6.25391,-6.328125 -3.54057,-3.636548 -6.68905,-6.908397 -8.41211,-8.65039 -1.09515,-1.107189 -2.11738,-2.315676 -3.10547,-3.5 z m 42.10743,11.640624 c -1.42148,1.692214 -4.21539,3.720825 -7.74609,4.99414 -0.90202,6.077792 -3.65355,10.871738 -6.36133,13.701172 2.13468,1.708833 3.5139,1.746095 6.42578,1.746094 4.43874,-10e-7 6.93681,-1.982028 8.53125,-4.568359 1.59444,-2.586332 2.1525,-5.831477 2.22852,-7.998047 0.0242,-0.689082 -0.29646,-2.151998 -0.89063,-3.679688 -0.55647,-1.430771 -1.33937,-2.950801 -2.1875,-4.195312 z m -54.55078,0.761719 c -2.23599,3.310586 -4.72875,6.62421 -6.19335,9.955078 0.003,0.0029 0.003,0.003 0.006,0.0059 1.17192,1.061169 2.35327,2.21925 3.27929,3.34375 0.33546,0.40736 0.63047,0.802957 0.89453,1.199219 0.14451,-0.641308 0.34494,-1.303891 0.64844,-1.9375 0.66637,-1.391193 1.71383,-2.64305 5.28906,-2.650391 3.57523,-0.0073 4.97076,6.932871 0.91602,6.748047 -4.05475,-0.184824 -0.95118,-4.367188 -0.95118,-4.367188 0,0 -2.71399,-0.414179 -3.44922,1.195313 -0.73523,1.609492 -0.92082,4.262988 0.59571,5.642578 0.95057,0.840241 2.39291,1.52146 4.30859,1.59375 0.66005,0.02491 1.59531,-0.404621 2.65625,-1.337891 1.06094,-0.933267 2.2083,-2.30961 3.34375,-3.861328 0.5594,-0.764478 1.11505,-1.571674 1.66406,-2.390625 -3.32486,-2.787615 -6.59464,-5.989787 -9.61328,-9.24414 -1.2153,-1.310195 -2.27457,-2.594283 -3.39453,-3.894531 z m 26.10547,0.449218 c -2.90539,3.144951 -5.55039,5.117588 -6.78125,6.804688 -1.06164,1.455159 -2.31444,3.433133 -3.65039,5.476562 0.80412,0.641245 1.60712,1.263203 2.40625,1.837891 4.4767,3.219384 8.8277,5.255261 12.28125,5.273437 2.80879,0.01478 5.40974,-0.612988 8.17578,-1.871093 -2.76753,-2.763568 -4.64828,-8.367719 -5.46484,-13.5625 -2.64547,-0.838861 -4.95832,-2.165513 -6.9668,-3.958985 z m -33.17382,11.464844 c -0.20601,0.487239 -0.53485,1.119748 -0.68555,1.533203 -0.42786,1.173872 -0.60352,2.099598 -0.59961,2.298828 l 0,0.0098 0,0.0098 c 2e-5,1.801201 0.36819,2.995137 0.82422,3.667969 0.45603,0.672833 0.93665,0.890625 1.55859,0.890625 0.96585,0 1.59234,-0.415977 2.07617,-1.091797 0.48383,-0.67582 0.74275,-1.633746 0.71094,-2.460937 -0.01,-0.250176 -0.44799,-1.199642 -1.26953,-2.197266 -0.69801,-0.847619 -1.66204,-1.772259 -2.61523,-2.660156 z"
     id="path4385-8"
     inkscape:connector-curvature="0"
     sodipodi:nodetypes="sscssscscsssscsssscsscsssscssscscccccccccscsccssssccscssssccczzcscsccsccscccsscscsccccsccscscsccccssssccccscszzczcssscsccscssccccscccssscsc" />
</svg>
